<?xml version="1.0" standalone="no"?>
<!DOCTYPE svg PUBLIC "-//W3C//DTD SVG 20010904//EN"
 "http://www.w3.org/TR/2001/REC-SVG-20010904/DTD/svg10.dtd">
<svg version="1.0" xmlns="http://www.w3.org/2000/svg"
 width="300.000000pt" height="300.000000pt" viewBox="0 0 300.000000 300.000000"
 preserveAspectRatio="xMidYMid meet">

<g transform="translate(0.000000,300.000000) scale(0.100000,-0.100000)"
fill="#000000" stroke="none">
<path d="M2245 2881 c-37 -6 -35 -7 43 -20 45 -7 82 -17 82 -21 0 -4 10 -10
22 -13 12 -4 20 -8 17 -11 -2 -3 -24 0 -47 6 -32 8 -46 8 -55 -1 -6 -6 -21
-11 -33 -11 -13 0 -26 -5 -29 -10 -4 -6 -11 -8 -16 -4 -5 3 -7 9 -5 13 6 10
-9 11 -112 12 -53 0 -80 4 -76 10 3 6 13 8 21 5 16 -7 46 11 39 23 -3 4 -40 3
-83 -2 -43 -5 -94 -10 -113 -11 -19 -2 -43 -7 -53 -11 -10 -4 -35 -5 -55 -1
-21 3 -65 1 -98 -4 -32 -6 -164 -10 -292 -11 -137 0 -230 -5 -226 -10 6 -11
-38 -29 -69 -29 -18 0 -19 2 -7 10 24 15 -2 11 -30 -5 -32 -19 -100 -19 -159
-1 -25 8 -64 19 -85 23 -22 4 -41 14 -44 21 -4 14 29 5 40 -12 4 -6 10 -8 13
-4 4 4 -5 14 -19 23 -21 14 -29 15 -41 5 -17 -14 -168 -23 -159 -9 3 5 25 9
50 9 24 0 44 4 44 8 0 14 -184 22 -322 15 -116 -6 -126 -8 -183 -41 -83 -48
-115 -80 -115 -114 0 -15 -5 -58 -12 -95 -10 -62 -9 -77 16 -180 25 -105 27
-127 26 -330 0 -120 -1 -252 -2 -293 -1 -43 6 -107 16 -150 20 -87 18 -180 -9
-315 -13 -70 -16 -117 -11 -212 19 -390 20 -361 -8 -456 -30 -102 -32 -143
-10 -218 9 -30 16 -82 16 -115 -1 -42 5 -73 18 -99 10 -20 16 -43 14 -50 -3
-7 3 -18 14 -24 23 -12 92 -12 92 1 0 5 10 6 23 3 12 -2 46 -7 75 -9 42 -4 52
-2 52 10 0 8 4 12 10 9 6 -3 10 -1 10 4 0 9 27 9 50 1 8 -3 103 -1 106 3 2 2
-11 21 -28 43 l-32 39 37 -34 c20 -19 37 -40 37 -47 0 -14 22 -24 52 -24 14 0
18 -5 14 -15 -4 -11 2 -15 20 -15 14 0 45 -5 70 -11 31 -8 48 -8 57 -1 13 11
65 20 156 28 29 2 58 7 65 11 6 4 5 -1 -2 -10 -12 -14 -11 -17 12 -23 33 -8
59 2 28 12 -13 4 -19 10 -14 13 15 9 113 0 106 -10 -7 -12 3 -11 25 2 15 10
22 8 39 -9 12 -12 28 -19 37 -16 8 4 27 3 43 -1 25 -7 25 -8 7 -16 -12 -5 11
-7 62 -6 46 1 83 5 83 8 0 7 44 14 215 33 66 8 145 20 175 26 37 9 84 10 150
5 118 -10 260 -11 455 -5 83 2 200 1 260 -4 144 -11 145 -10 156 115 5 52 13
114 19 138 11 46 14 174 10 436 -1 91 3 190 10 230 7 39 14 115 17 170 4 84 1
117 -21 210 -17 73 -27 145 -28 215 -3 108 17 463 31 560 5 30 5 134 0 230 -4
96 -10 215 -11 263 -3 86 -4 90 -36 118 -18 16 -40 29 -50 29 -13 -1 -11 -4 8
-15 l25 -15 -30 6 c-16 4 -39 13 -50 20 -11 8 -43 14 -75 13 -43 -1 -50 -3
-30 -9 22 -7 -179 -5 -315 4 -27 2 -68 0 -90 -3z m-1005 -102 c0 -6 -4 -7 -10
-4 -5 3 -10 11 -10 16 0 6 5 7 10 4 6 -3 10 -11 10 -16z m126 -4 c35 -18 74
-19 74 -2 0 6 9 1 19 -13 11 -13 17 -28 14 -33 -2 -4 1 -14 7 -22 17 -21 3
-19 -36 6 -19 11 -32 25 -28 30 3 5 -5 9 -18 9 -27 1 -101 39 -77 40 9 0 30
-7 45 -15z m1169 -6 c5 -5 -5 -4 -23 2 -17 6 -32 13 -32 16 0 7 43 -8 55 -18z
m-1430 -17 c-3 -3 -11 0 -18 7 -9 10 -8 11 6 5 10 -3 15 -9 12 -12z m-459
-411 c5 -5 44 -27 86 -49 42 -22 96 -54 120 -72 75 -54 142 -97 188 -120 25
-12 56 -32 70 -45 29 -26 328 -211 363 -224 13 -5 49 -26 80 -45 31 -20 60
-36 65 -36 37 0 118 -54 202 -135 52 -50 127 -112 165 -136 39 -25 102 -73
140 -106 39 -33 97 -79 130 -102 175 -123 290 -228 300 -273 8 -34 -10 -118
-35 -168 -33 -65 -100 -228 -100 -243 0 -28 -26 -34 -167 -41 -130 -7 -146 -6
-185 13 -72 34 -357 271 -404 337 -17 23 -53 60 -80 82 -59 46 -86 78 -184
212 -41 56 -105 129 -143 162 -45 40 -92 97 -141 172 -55 84 -95 131 -162 191
-165 148 -286 270 -321 325 -20 30 -59 80 -88 110 -60 64 -108 136 -100 150 4
6 14 10 23 11 9 0 35 9 57 19 43 20 105 26 121 11z m1505 -31 c13 -7 64 -42
112 -79 l89 -66 -7 -155 c-4 -85 -11 -161 -17 -167 -30 -37 -83 -3 -378 242
-188 155 -190 157 -190 166 0 11 28 20 160 49 128 29 189 31 231 10z m-1428
-1193 c18 -13 54 -32 82 -42 85 -31 204 -124 250 -195 12 -19 57 -72 99 -118
67 -72 77 -88 74 -115 -3 -30 -6 -32 -48 -38 -25 -3 -101 -23 -170 -44 -74
-23 -153 -40 -192 -43 -59 -3 -75 0 -124 25 -60 30 -132 103 -160 162 -13 27
-15 52 -10 125 12 191 27 240 89 284 40 28 70 28 110 -1z m62 12 c11 -17 -1
-21 -15 -4 -8 9 -8 15 -2 15 6 0 14 -5 17 -11z m-470 -837 c-3 -3 -11 0 -18 7
-9 10 -8 11 6 5 10 -3 15 -9 12 -12z m-67 -48 c7 -8 19 -14 25 -14 7 0 4 7 -6
14 -34 26 3 28 53 3 30 -15 59 -23 72 -19 16 4 19 2 13 -9 -19 -34 -26 -37
-55 -29 -18 5 -32 4 -39 -3 -9 -9 -14 -8 -21 3 -5 8 -10 10 -10 5 0 -6 -12
-10 -27 -9 -16 1 -43 2 -60 3 -44 1 -42 15 5 28 37 10 37 10 12 20 -14 6 -36
23 -50 37 l-24 27 49 -22 c27 -12 55 -28 63 -35z"/>
<path d="M490 155 c41 -16 80 -19 80 -6 0 12 -37 21 -80 20 l-35 -1 35 -13z"/>
</g>
</svg>
